

Release info:

General
Format                                   : Matroska
Format version                           : Version 2
File size                                : 694 MiB
Duration                                 : 1h 19mn
Overall bit rate mode                    : Variable
Overall bit rate                         : 1 217 Kbps

Video
ID                                       : 1
Format                                   : MPEG-4 Visual
Format profile                           : Advanced Simple@L5
Format settings, BVOP                    : Yes
Format settings, QPel                    : No
Format settings, GMC                     : No warppoints
Format settings, Matrix                  : Custom
Codec ID                                 : V_MS/VFW/FOURCC / XVID
Codec ID/Hint                            : XviD
Duration                                 : 1h 19mn
Bit rate                                 : 1 083 Kbps
Width                                    : 640 pixels
Height                                   : 352 pixels
Display aspect ratio                     : 16:9
Frame rate mode                          : Constant
Frame rate                               : 25.000 fps
Color space                              : YUV
Chroma subsampling                       : 4:2:0
Bit depth                                : 8 bits
Scan type                                : Progressive
Compression mode                         : Lossy
Bits/(Pixel*Frame)                       : 0.192
Stream size                              : 617 MiB (89%)
Language                                 : English
Default                                  : Yes
Forced                                   : No

Audio
ID                                       : 2
Format                                   : MPEG Audio
Format version                           : Version 1
Format profile                           : Layer 3
Mode                                     : Joint stereo
Mode extension                           : MS Stereo
Muxing mode                              : Header stripping
Codec ID                                 : A_MPEG/L3
Codec ID/Hint                            : MP3
Duration                                 : 1h 19mn
Bit rate mode                            : Variable
Bit rate                                 : 110 Kbps
Nominal bit rate                         : 128 Kbps
Channel(s)                               : 2 channels
Sampling rate                            : 48.0 KHz
Compression mode                         : Lossy
Stream size                              : 62.7 MiB (9%)
Language                                 : English
Default                                  : Yes
Forced                                   : No

Source:
credit to original movie ripper ViP3R (Thanks)

IMDB Info:

Animated-family adventure that tells the heart-warming, coming-of-age story of a man and his best-friend, a lovable and fearless dog named, Jock.

Director: Duncan MacNeillie
Writers: Jim Cox (additional writer), Duncan MacNeillie (screenplay), 
Stars: Bryan Adams, Donald Sutherland and Helen Hunt 

Genres: Animation | Adventure | Comedy | Family
 
http://www.imdb.com/title/tt1822239/

Screen Shot:
 
http://www.shotpix.com/images/63806796987285704802.png 
http://www.shotpix.com/images/65072398681632926103.png 
http://www.shotpix.com/images/34143015176661738080.png 
http://www.shotpix.com/images/83336052528766283213.png 
http://www.shotpix.com/images/86584453957645175842.png 
http://www.shotpix.com/images/86771994152696984008.png